<?xml version="1.0" ?><!DOCTYPE svg  PUBLIC '-//W3C//DTD SVG 1.1//EN'  'http://www.w3.org/Graphics/SVG/1.1/DTD/svg11.dtd'><svg enable-background="new 0 0 128 128" id="Слой_1" version="1.1" viewBox="0 0 128 128" xml:space="preserve" xmlns="http://www.w3.org/2000/svg" xmlns:xlink="http://www.w3.org/1999/xlink"><g><g><g><path d="M99,34h-5c-8.3,0-15-6.7-15-15v-5c0-5.5-4.5-10-10-10H34c-8.3,0-15,6.7-15,15v90c0,8.3,6.7,15,15,15h60     c8.3,0,15-6.7,15-15V44C109,38.5,104.5,34,99,34z" fill="#32A0D7"/></g><g><path d="M34,10l38.1-5.2c0.6,0,1-0.8-3.1-0.8H34c-8.3,0-15,6.7-15,15v90c0,4.9-2.5,2.9,1.1,5.7L25,19     C25.5,13.5,28.2,11.1,34,10z" fill="#FFFFFF"/></g><g opacity="0.2"><path d="M108.2,40c-1.5-3.5-5.1-6-9.2-6h-5c-8.3,0-15-6.7-15-15v-5c0-4.1-2.5-7.6-6-9.2V19c0,11.6,9.4,21,21,21     H108.2z" fill="#070B0C"/></g><g><path d="M94,125.2H34c-9,0-16.2-7.3-16.2-16.2V19C17.8,10,25,2.8,34,2.8h35c6.2,0,11.2,5,11.2,11.2v5     c0,7.6,6.2,13.8,13.8,13.8h5c6.2,0,11.2,5,11.2,11.2v65C110.2,118,103,125.2,94,125.2z M34,5.2c-7.6,0-13.8,6.2-13.8,13.8v90     c0,7.6,6.2,13.8,13.8,13.8h60c7.6,0,13.8-6.2,13.8-13.8V44c0-4.8-3.9-8.8-8.8-8.8h-5c-9,0-16.2-7.3-16.2-16.2v-5     c0-4.8-3.9-8.8-8.8-8.8H34z" fill="#1E1E1E"/></g><g><path d="M76,6.9c1.8,1.8,3,4.3,3,7.1v5c0,8.3,6.7,15,15,15h5c2.7,0,5.2,1.1,7,2.9h0L76,6.9L76,6.9z" fill="#898B8C"/></g><g><path d="M106,38.1L106,38.1c-0.3,0-0.7-0.1-0.9-0.4c-1.7-1.6-3.8-2.5-6.2-2.5h-5c-9,0-16.2-7.3-16.2-16.2v-5     c0-2.4-0.9-4.6-2.6-6.2c-0.2-0.2-0.4-0.6-0.4-0.9c0-0.5,0.3-1,0.8-1.2c0.5-0.2,1-0.1,1.4,0.3l30,30c0.4,0.4,0.5,0.9,0.3,1.4     C107,37.8,106.5,38.1,106,38.1z M80.2,12.8c0,0.4,0.1,0.8,0.1,1.2v5c0,7.6,6.2,13.8,13.8,13.8h5c0.4,0,0.8,0,1.2,0.1L80.2,12.8z" fill="#1E1E1E"/></g><g><path d="M72,98H56c-2.2,0-4-1.8-4-4s1.8-4,4-4h16c2.2,0,4,1.8,4,4S74.2,98,72,98z" fill="#FFFFFF"/></g><g><path d="M64,98c-2.2,0-4-1.8-4-4V71c0-2.2,1.8-4,4-4s4,1.8,4,4v23C68,96.2,66.2,98,64,98z" fill="#FFFFFF"/></g><g><path d="M64,75h-7c-2.2,0-4-1.8-4-4s1.8-4,4-4h7c2.2,0,4,1.8,4,4S66.2,75,64,75z" fill="#FFFFFF"/></g><g><circle cx="63" cy="59" fill="#FFFFFF" r="5"/></g></g></g></svg>