<?xml version="1.0" ?><svg height="18px" version="1.1" viewBox="0 0 18 18" width="18px" xmlns="http://www.w3.org/2000/svg" xmlns:sketch="http://www.bohemiancoding.com/sketch/ns" xmlns:xlink="http://www.w3.org/1999/xlink"><title/><desc/><defs/><g fill="none" fill-rule="evenodd" id="Page-1" stroke="none" stroke-width="1"><g fill="#000000" id="Core" transform="translate(-507.000000, -171.000000)"><g id="drive-spreadsheet" transform="translate(507.000000, 171.000000)"><path d="M16,0 L2,0 C0.9,0 0,0.9 0,2 L0,5 L0,16 C0,17.1 0.9,18 2,18 L16,18 C17.1,18 18,17.1 18,16 L18,2 C18,0.9 17.1,0 16,0 L16,0 Z M16,8 L8,8 L8,16 L6,16 L6,8 L2,8 L2,6 L6,6 L6,2 L8,2 L8,6 L16,6 L16,8 L16,8 Z" id="Shape"/></g></g></g></svg>