<?xml version="1.0" ?><!DOCTYPE svg  PUBLIC '-//W3C//DTD SVG 1.1//EN'  'http://www.w3.org/Graphics/SVG/1.1/DTD/svg11.dtd'><svg enable-background="new 0 0 32 32" version="1.1" viewBox="0 0 32 32" xml:space="preserve" xmlns="http://www.w3.org/2000/svg" xmlns:xlink="http://www.w3.org/1999/xlink"><g id="Files_Folder40"/><g id="Files_Folder39"/><g id="Files_Folder38"><g><g><path d="M28,6v16c0,0.55-0.45,1-1,1H5c-0.55,0-1-0.45-1-1V2c0-0.55,0.45-1,1-1h8.64c0.35,0,0.68,0.19,0.86,0.49     L16.57,5H27C27.55,5,28,5.45,28,6z" fill="#FFC10A"/></g><g><path d="M31,22v8c0,0.55-0.45,1-1,1H2c-0.55,0-1-0.45-1-1v-8c0-0.55,0.45-1,1-1h28C30.55,21,31,21.45,31,22z" fill="#FE9803"/></g></g><path d="M17.4141,14l3.293-3.293c0.3906-0.3906,0.3906-1.0234,0-1.4141s-1.0234-0.3906-1.4141,0L16,12.5859   l-3.293-3.293c-0.3906-0.3906-1.0234-0.3906-1.4141,0s-0.3906,1.0234,0,1.4141L14.5859,14l-3.293,3.293   c-0.3906,0.3906-0.3906,1.0234,0,1.4141C11.4883,18.9023,11.7441,19,12,19s0.5117-0.0977,0.707-0.293L16,15.4141l3.293,3.293   C19.4883,18.9023,19.7441,19,20,19s0.5117-0.0977,0.707-0.293c0.3906-0.3906,0.3906-1.0234,0-1.4141L17.4141,14z" fill="#FE9803"/></g><g id="Files_Folder37"/><g id="Files_Folder36"/><g id="Files_Folder35"/><g id="Files_Folder34"/><g id="Files_Folder33"/><g id="Files_Folder32"/><g id="Files_Folder31"/><g id="Files_Folder30"/><g id="Files_Folder29"/><g id="Files_Folder28"/><g id="Files_Folder27"/><g id="Files_Folder26"/><g id="Files_Folder25"/><g id="Files_Folder24"/><g id="Files_Folder23"/><g id="Files_Folder22"/><g id="Files_Folder21"/><g id="Files_Folder20"/><g id="Files_Folder19"/><g id="Files_Folder18"/><g id="Files_Folder17"/><g id="Files_Folder16"/><g id="Files_Folder15"/><g id="Files_Folder14"/><g id="Files_Folder13"/><g id="Files_Folder12"/><g id="Files_Folder11"/><g id="Files_Folder10"/><g id="Files_Folder09"/><g id="Files_Folder08"/><g id="Files_Folder07"/><g id="Files_Folder06"/><g id="Files_Folder05"/><g id="Files_Folder04"/><g id="Files_Folder03"/><g id="Files_Folder02"/><g id="Files_Folder01"/></svg>