<?xml version="1.0" encoding="iso-8859-1"?>
<!-- Generator: Adobe Illustrator 19.0.0, SVG Export Plug-In . SVG Version: 6.00 Build 0)  -->
<svg version="1.1" id="Capa_1" xmlns="http://www.w3.org/2000/svg" xmlns:xlink="http://www.w3.org/1999/xlink" x="0px" y="0px"
	 viewBox="0 0 497.371 497.371" style="enable-background:new 0 0 497.371 497.371;" xml:space="preserve">
<rect x="64.366" y="67.291" style="fill:#FFCA19;" width="71.68" height="71.68"/>
<g>
	<path style="fill:#010101;" d="M185.783,203.337H14.629C5.851,203.337,0,197.486,0,188.709V17.554
		C0,8.777,5.851,2.926,14.629,2.926h171.154c8.777,0,14.629,5.851,14.629,14.629v171.154
		C200.411,196.023,193.097,203.337,185.783,203.337z M29.257,174.08h141.897V32.183H29.257V174.08z"/>
	<path style="fill:#010101;" d="M136.046,153.6h-71.68c-8.777,0-14.629-5.851-14.629-14.629v-71.68
		c0-8.777,5.851-14.629,14.629-14.629h71.68c8.777,0,14.629,5.851,14.629,14.629v71.68C150.674,146.286,143.36,153.6,136.046,153.6z
		 M78.994,124.343h42.423V81.92H78.994V124.343z"/>
</g>
<rect x="361.326" y="67.291" style="fill:#FFCA19;" width="71.68" height="71.68"/>
<g>
	<path style="fill:#010101;" d="M482.743,203.337H311.589c-8.777,0-14.629-5.851-14.629-14.629V17.554
		c0-8.777,5.851-14.629,14.629-14.629h171.154c8.777,0,14.629,5.851,14.629,14.629v171.154
		C497.371,196.023,491.52,203.337,482.743,203.337z M326.217,174.08h141.897V32.183H326.217V174.08z"/>
	<path style="fill:#010101;" d="M433.006,153.6h-71.68c-8.777,0-14.629-5.851-14.629-14.629v-71.68
		c0-8.777,5.851-14.629,14.629-14.629h71.68c8.777,0,14.629,5.851,14.629,14.629v71.68C447.634,146.286,440.32,153.6,433.006,153.6z
		 M375.954,124.343h42.423V81.92h-42.423V124.343z"/>
</g>
<rect x="64.366" y="358.4" style="fill:#FFCA19;" width="71.68" height="71.68"/>
<g>
	<path style="fill:#010101;" d="M185.783,494.446H14.629C5.851,494.446,0,488.594,0,479.817V308.663
		c0-8.777,5.851-14.629,14.629-14.629h171.154c8.777,0,14.629,5.851,14.629,14.629v171.154
		C200.411,487.131,193.097,494.446,185.783,494.446z M29.257,465.189h141.897V323.291H29.257V465.189z"/>
	<path style="fill:#010101;" d="M136.046,444.709h-71.68c-8.777,0-14.629-5.851-14.629-14.629V358.4
		c0-8.777,5.851-14.629,14.629-14.629h71.68c8.777,0,14.629,5.851,14.629,14.629v71.68
		C150.674,437.394,143.36,444.709,136.046,444.709z M78.994,415.451h42.423v-42.423H78.994V415.451z"/>
</g>
<rect x="361.326" y="358.4" style="fill:#FFCA19;" width="71.68" height="71.68"/>
<g>
	<path style="fill:#010101;" d="M482.743,494.446H311.589c-8.777,0-14.629-5.851-14.629-14.629V308.663
		c0-8.777,5.851-14.629,14.629-14.629h171.154c8.777,0,14.629,5.851,14.629,14.629v171.154
		C497.371,487.131,491.52,494.446,482.743,494.446z M326.217,465.189h141.897V323.291H326.217V465.189z"/>
	<path style="fill:#010101;" d="M433.006,444.709h-71.68c-8.777,0-14.629-5.851-14.629-14.629V358.4
		c0-8.777,5.851-14.629,14.629-14.629h71.68c8.777,0,14.629,5.851,14.629,14.629v71.68
		C447.634,437.394,440.32,444.709,433.006,444.709z M375.954,415.451h42.423v-42.423h-42.423V415.451z"/>
	<path style="fill:#010101;" d="M371.566,282.331h-51.2c-8.777,0-14.629-5.851-14.629-14.629s5.851-14.629,14.629-14.629h36.571
		v-19.017c0-8.777,5.851-14.629,14.629-14.629h92.16c8.777,0,14.629,5.851,14.629,14.629c0,8.777-5.851,14.629-14.629,14.629
		h-77.531v19.017C386.194,276.48,378.88,282.331,371.566,282.331z"/>
	<path style="fill:#010101;" d="M264.777,188.709c-8.777,0-14.629-5.851-14.629-14.629V98.011h-19.017
		c-8.777,0-14.629-5.851-14.629-14.629V30.72c0-8.777,5.851-14.629,14.629-14.629c8.777,0,14.629,5.851,14.629,14.629v36.571h19.017
		c8.777,0,14.629,5.851,14.629,14.629v92.16C279.406,182.857,273.554,188.709,264.777,188.709z"/>
	<path style="fill:#010101;" d="M264.777,318.903c-8.777,0-14.629-5.851-14.629-14.629v-49.737h-19.017
		c-8.777,0-14.629-5.851-14.629-14.629v-51.2c0-8.777,5.851-14.629,14.629-14.629c8.777,0,14.629,5.851,14.629,14.629v36.571h19.017
		c8.777,0,14.629,5.851,14.629,14.629v64.366C279.406,313.051,273.554,318.903,264.777,318.903z"/>
	<path style="fill:#010101;" d="M264.777,494.446c-8.777,0-14.629-5.851-14.629-14.629v-36.571h-19.017
		c-8.777,0-14.629-5.851-14.629-14.629v-48.274c0-8.777,5.851-14.629,14.629-14.629c8.777,0,14.629,5.851,14.629,14.629v33.646
		h19.017c8.777,0,14.629,5.851,14.629,14.629v51.2C279.406,487.131,273.554,494.446,264.777,494.446z"/>
	<path style="fill:#010101;" d="M462.263,282.331h-45.349c-8.777,0-14.629-5.851-14.629-14.629s5.851-14.629,14.629-14.629h45.349
		c8.777,0,14.629,5.851,14.629,14.629S471.04,282.331,462.263,282.331z"/>
	<path style="fill:#010101;" d="M80.457,282.331H27.794c-8.777,0-14.629-5.851-14.629-14.629s5.851-14.629,14.629-14.629h38.034
		v-19.017c0-8.777,5.851-14.629,14.629-14.629h92.16c8.777,0,14.629,5.851,14.629,14.629c0,8.777-5.851,14.629-14.629,14.629H95.086
		v19.017C95.086,276.48,87.771,282.331,80.457,282.331z"/>
	<path style="fill:#010101;" d="M171.154,282.331h-45.349c-8.777,0-14.629-5.851-14.629-14.629s5.851-14.629,14.629-14.629h45.349
		c8.777,0,14.629,5.851,14.629,14.629S179.931,282.331,171.154,282.331z"/>
	<path style="fill:#010101;" d="M264.777,358.4h-45.349c-8.777,0-14.629-5.851-14.629-14.629c0-8.777,5.851-14.629,14.629-14.629
		h45.349c8.777,0,14.629,5.851,14.629,14.629C279.406,352.549,273.554,358.4,264.777,358.4z"/>
</g>
<g>
</g>
<g>
</g>
<g>
</g>
<g>
</g>
<g>
</g>
<g>
</g>
<g>
</g>
<g>
</g>
<g>
</g>
<g>
</g>
<g>
</g>
<g>
</g>
<g>
</g>
<g>
</g>
<g>
</g>
</svg>
