<?xml version="1.0" ?><svg enable-background="new 0 0 512 512" id="Layer_1" version="1.1" viewBox="0 0 512 512" xml:space="preserve" xmlns="http://www.w3.org/2000/svg" xmlns:xlink="http://www.w3.org/1999/xlink"><g><g><g><path d="M434.7,309L277.8,152c-10.8-10.8-26.4-15.3-41.3-11.8l-38.1,8.9l-2,0.5v0l-52.4,12.2     c-1.8,0.4-3.5,0.9-5.2,1.6c17.7,22.8,37.6,44.9,54.5,62.2c4.8-2.2,10.2-3.5,15.9-3.5c20.9,0,37.9,17,37.9,37.9     c0,20.9-17,37.9-37.9,37.9c-20.9,0-37.9-17-37.9-37.9c0-5.5,1.2-10.7,3.3-15.4c-11.7-12-26.2-27.6-40.8-44.9     c-5.7-6.8-11.1-13.4-16.1-19.9c-3.1,4.5-5.4,9.6-6.7,15.1l-21.5,92.5c-3.5,14.9,1,30.5,11.8,41.3L258,485.6     c17.3,17.3,45.3,17.3,62.6,0l114.1-114.1C452,354.3,452,326.2,434.7,309z M251,384.7c-3.4,0-6.9-1.3-9.5-3.9     c-5.2-5.2-5.2-13.7,0-18.9l69.4-69.4c5.2-5.2,13.7-5.2,18.9,0c5.2,5.2,5.2,13.7,0,18.9l-69.4,69.4     C257.9,383.4,254.4,384.7,251,384.7z M366.5,348l-69.4,69.4c-2.6,2.6-6,3.9-9.5,3.9c-3.4,0-6.9-1.3-9.5-3.9     c-5.2-5.2-5.2-13.7,0-18.9l69.4-69.4c5.2-5.2,13.7-5.2,18.9,0C371.7,334.3,371.7,342.7,366.5,348z" fill="#F7941E"/><g><path d="M361.2,342.7c-22.1,22.1-44.2,44.2-66.3,66.3c-1,1-2,2.1-3.1,3.1c-4.2,3.6-11.1,0.9-10-5.1c0.7-3.8,6.1-7.6,8.6-10.1      c13.6-13.6,27.2-27.2,40.8-40.8c6.2-6.2,12.4-12.4,18.7-18.7c1-1,1.9-2.1,3-3C358.6,329.5,366.3,336.9,361.2,342.7      c-6.4,7.2,4.1,17.8,10.6,10.6c6.8-7.6,8.3-18.4,2.2-26.9c-5.8-8-16.4-10.8-25.4-6.8c-5.7,2.6-10.2,8.2-14.6,12.6      c-15.8,15.8-31.7,31.7-47.5,47.5c-4.4,4.4-9.1,8.8-13.4,13.4c-5,5.4-7.4,12.4-5.8,19.7c2.2,9.8,11.7,16.9,21.8,16.1      c8.9-0.7,14-6.8,19.8-12.6c7.3-7.3,14.6-14.6,21.9-21.9c13.7-13.7,27.3-27.3,41-41C378.6,346.4,368,335.8,361.2,342.7z"/><path d="M251,377.2c-5.5-0.3-7.4-6.2-4.1-10.1c1-1.1,2.2-2.2,3.2-3.2c5.4-5.4,10.7-10.7,16.1-16.1      c13.9-13.9,27.8-27.8,41.7-41.7c2.8-2.8,5.5-6.2,8.7-8.7c5-3.8,12.1,1.6,8.9,7.3c-0.7,1.3-2,2.3-3,3.3      c-12.1,12.1-24.2,24.2-36.2,36.2c-7.5,7.5-15.1,15.1-22.6,22.6C260.6,370,255.8,377,251,377.2c-9.6,0.5-9.7,15.5,0,15      c9.5-0.5,14.7-6.1,20.9-12.2c7.2-7.2,14.4-14.4,21.6-21.6c13.6-13.6,27.4-27,40.8-40.8c10.8-11,8.5-30.1-7.2-35.4      c-10.6-3.6-18.6,2.2-25.6,9.1c-15.2,15.2-30.4,30.4-45.6,45.6c-6.2,6.2-12.5,12.3-18.6,18.6c-4.1,4.2-7,9.2-7.2,15.2      c-0.3,12.1,9.2,20.9,20.9,21.6C260.7,392.8,260.6,377.8,251,377.2z"/><path d="M440,303.6c-26.5-26.5-53-53-79.5-79.5c-17.8-17.8-35.7-35.7-53.5-53.5c-8.6-8.6-16.9-18-26.2-26      c-9.3-8.1-21.1-12.8-33.5-13c-6.7-0.1-13.2,1.5-19.7,3c-11.1,2.6-22.2,5.1-33.2,7.7c3.2,2.4,6.3,4.8,9.5,7.2c0,0,0,0,0,0      c0-5-4.8-8.3-9.5-7.2c-9.2,2.1-18.4,4.3-27.7,6.4c-9.9,2.3-20.3,4-30,7.3c-5.7,2-6.8,8-3.3,12.5c16.9,21.8,35.3,42.4,54.5,62.2      c2.5,2.6,6,2.5,9.1,1.2c22-9.6,47.1,10.5,41.9,34.1c-4.8,21.9-31.9,32-49.4,17.1c-10.9-9.3-13.2-23.7-7.8-36.6      c1-2.4-0.2-5.6-1.9-7.3c-20-20.6-39.2-42.1-56.9-64.8c-3.2-4.1-9.4-2.1-11.8,1.5c-5.9,8.9-7.8,18.6-10.2,28.8      c-2.9,12.6-5.9,25.2-8.8,37.8c-2.7,11.6-5.4,23.2-8.1,34.8c-2.7,11.7-4.7,23.1-1.1,35c5,16.3,18.8,27.5,30.4,39.1      c17.4,17.4,34.8,34.8,52.2,52.2c29,29,57.7,58.4,87,87c12.5,12.3,29.7,17.6,47,14.4c11.4-2.1,20.8-8.5,28.9-16.6      c14.8-14.8,29.6-29.6,44.4-44.4c18.2-18.2,36.4-36.4,54.6-54.6c4.1-4.1,8.2-8.1,12.2-12.2c12.3-12.6,17.7-29.8,14.5-47.1      C452.3,320.1,447.1,310.9,440,303.6c-6.7-7-17.3,3.7-10.6,10.6c12.8,13.2,14.5,34.1,2.9,48.8c-3.1,3.9-7,7.3-10.5,10.8      c-16.3,16.3-32.5,32.5-48.8,48.8c-16.5,16.5-32.9,32.9-49.4,49.4c-3.1,3.1-6.1,6.3-9.4,9.3c-13.4,12.5-35,13-48.8,1      c-8.8-7.6-16.7-16.6-24.9-24.8c-17.5-17.5-35-35-52.5-52.5c-27.1-27.1-54.6-54-81.4-81.4c-9.3-9.5-12.8-22.3-9.9-35.3      c1.9-8.3,3.9-16.7,5.8-25c5-21.7,10-43.3,15.1-65c1.3-5.4,3.2-10.2,6.3-14.9c-3.9,0.5-7.9,1-11.8,1.5      c17.7,22.7,36.9,44.2,56.9,64.8c-0.6-2.4-1.3-4.9-1.9-7.3c-6.8,16.2-3.3,35.1,8.4,48.1c10.8,12,27.9,17,43.5,13.6      c33.8-7.4,46.2-50.5,22.9-75.4c-13.7-14.6-34.7-17.6-52.6-9.7c3,0.4,6.1,0.8,9.1,1.2c-19.2-19.8-37.5-40.5-54.5-62.2      c-1.1,4.2-2.2,8.4-3.3,12.5c9.7-3.3,20.1-5,30-7.3c9.2-2.1,18.4-4.3,27.7-6.4c-3.2-2.4-6.3-4.8-9.5-7.2c0,0,0,0,0,0      c0,5,4.8,8.3,9.5,7.2c9.4-2.2,18.8-4.4,28.2-6.6c4-0.9,7.9-1.9,11.9-2.8c9.2-2,18.8-0.5,27,4.4c4.6,2.8,8.3,6.7,12,10.5      c5.4,5.4,10.7,10.7,16.1,16.1c35.4,35.4,70.9,70.9,106.3,106.3c9.9,9.9,19.7,19.7,29.6,29.6C436.3,321.1,446.9,310.5,440,303.6z      "/></g></g></g><g><g><path d="M188.8,149.5C188.8,149.5,188.8,149.5,188.8,149.5c0,1.4,0.3,2.6,1,3.8c0.5,0.9,1.1,1.6,1.9,2.1c0.7,0.7,1.6,1.1,2.6,1.3     c1.3,0.4,2.7,0.4,4,0c0.7-0.2,1.3-0.3,2-0.5c1-0.2,1.8-0.7,2.6-1.3c0.8-0.5,1.5-1.2,1.9-2.1c0.5-0.9,0.8-1.8,0.9-2.8     c0.2-1,0.2-2-0.1-3c-0.6-1.8-1.7-3.6-3.4-4.5c-1.8-1-3.7-1.2-5.8-0.8c-0.7,0.2-1.3,0.3-2,0.5c-1,0.2-1.8,0.7-2.6,1.3     c-0.8,0.5-1.5,1.2-1.9,2.1c-0.5,0.9-0.8,1.8-0.9,2.8c-0.2,1-0.2,2,0.1,3c0.6,1.8,1.7,3.6,3.4,4.5c1.8,1,3.7,1.2,5.8,0.8     c0.7-0.2,1.3-0.3,2-0.5c-1.3-4.8-2.7-9.6-4-14.5c-0.7,0.2-1.3,0.3-2,0.5c3.2,2.4,6.3,4.8,9.5,7.2c0,0,0,0,0,0     c0-1.9-0.8-3.9-2.2-5.3c-0.7-0.7-1.5-1.2-2.4-1.6c-0.9-0.5-1.9-0.7-2.9-0.6c-1.9,0.1-4,0.7-5.3,2.2     C189.7,145.7,188.8,147.5,188.8,149.5z"/></g></g><g><path d="M246.9,259.9c0,20.9-17,37.9-37.9,37.9c-20.9,0-37.9-17-37.9-37.9c0-5.5,1.2-10.7,3.3-15.4    c14.5,15,24.8,24.5,25.5,25.2c2.6,2.4,5.8,3.6,9.1,3.6c3.6,0,7.2-1.4,9.8-4.3c5-5.4,4.7-13.9-0.7-18.9c-6.6-6.2-15.3-14.6-25-24.6    c4.8-2.2,10.2-3.5,15.9-3.5C229.9,222,246.9,239,246.9,259.9z" fill="#EF4136"/><g><path d="M239.4,259.9c-0.3,18.3-16.7,33-35.2,30c-20.6-3.3-30.3-25-22.6-43.4c-4.2,1.1-8.4,2.2-12.5,3.3     c7.6,7.8,15.3,15.6,23.3,23.1c7.1,6.8,16.2,10.3,25.7,5.8c11.2-5.3,15.3-20,8.3-30.3c-3.3-4.8-8.4-8.6-12.5-12.7     c-5.2-5.1-10.3-10.2-15.4-15.5c-0.5,3.9-1,7.9-1.5,11.8C217,223.2,239,238.6,239.4,259.9c0.2,9.6,15.2,9.7,15,0     c-0.3-15-7.4-28.8-19.7-37.4c-13.5-9.4-30.5-9.9-45.3-3.5c-4.6,2-4.6,8.7-1.5,11.8c7,7.2,14.2,14.4,21.5,21.3     c2.4,2.2,5.6,4.3,5.6,7.9c-0.1,3.3-2.9,6-6.3,5.7c-3.7-0.2-7-4.7-9.4-7.1c-6.6-6.4-13.1-12.9-19.5-19.5     c-4.3-4.5-10.5-1.6-12.5,3.3c-11,26.3,6,57.7,34.4,62.1c27.6,4.3,52.3-16.9,52.8-44.7C254.5,250.2,239.5,250.2,239.4,259.9z"/></g></g><g><path d="M218.1,250.1c5.4,5,5.7,13.5,0.7,18.9c-2.7,2.8-6.2,4.3-9.8,4.3c-3.3,0-6.5-1.2-9.1-3.6    c-0.8-0.7-11-10.2-25.5-25.2c-11.7-12-26.2-27.6-40.8-44.9c-5.7-6.8-11.1-13.4-16.1-19.9C82.7,134.9,64.8,98.3,64.3,70.5    C64,54.9,69,42,79,31.9c19.1-19.1,37.2-20,49-17.5c38.5,8.4,87.4,111.7,94.4,128.9l-24,5.7l-2,0.5c-11.1-23.6-56-105-74-108.9    c-2.9-0.6-11.6-2.5-24.4,10.2c-4.8,4.8-7,10.9-6.8,19.2c0.5,24.9,21.7,60,47.6,93.3c17.7,22.8,37.6,44.9,54.5,62.2    C202.8,235.5,211.5,243.9,218.1,250.1z" fill="#58595B"/><g><path d="M212.8,255.4c5.4,5.6-1.7,13.6-7.9,8.8c-4.9-3.8-9.2-8.8-13.6-13.2c-16.5-16.3-32.3-33.3-47.4-50.9     c-15.9-18.5-31.1-37.8-44.2-58.4c-10-15.7-19.1-32.3-24.3-50.2c-4.6-15.8-5.8-33.4,3.6-47.8c9.2-14.2,27.6-24.9,44.4-22.6     c10.5,1.4,18.8,8.8,26.6,16.8c10.4,10.8,19.1,23.2,27.2,35.8c9.1,14.2,17.3,29,25,44c3,5.8,5.8,11.6,8.6,17.5     c1,2.1,2,4.3,2.9,6.4c0.4,0.9,0.8,1.9,1.2,2.8c0.8,1.9-0.6-1.4,0.3,0.7c1.7-3.1,3.5-6.2,5.2-9.2c-8.7,2.1-17.3,4.2-26,6.2     c2.8,1.1,5.6,2.3,8.5,3.4c-9-19.1-19.6-37.6-30.6-55.7c-6.5-10.6-13.2-21.2-20.6-31.2c-5.6-7.6-11.5-15.4-19-21.1     c-6.4-4.9-14.3-6.3-22.1-3.8c-15.5,5-26.9,18.9-26.9,35.3c0,15,6.1,29.8,12.7,43c8.5,17,19.3,32.8,30.7,48     C152.6,194.3,181.6,226.3,212.8,255.4c7.1,6.6,17.7-4,10.6-10.6c-25-23.3-48.4-48.5-70-75c-11.6-14.2-22.7-28.9-32.4-44.5     c-8.2-13-15.9-26.7-20.1-41.5c-1.7-5.9-3-12.4-2.1-18.5c1-6.8,6-11.6,11.7-15.1c2-1.2,3.9-2.1,6.2-2.5c1.3-0.2-0.1-0.1,1.4-0.1     c0.5,0,2.8,0.2,1.6,0c-1.5-0.2,2.7,0.9,1.3,0.3c-1.2-0.5,0.6,0.3,0.8,0.5c0.6,0.4,1.2,0.8,1.8,1.2c-1.4-1,0.7,0.6,0.9,0.8     c0.6,0.5,1.2,1.1,1.8,1.7c1.4,1.4,2.8,2.8,4.1,4.3c3,3.3,5.7,6.8,8.4,10.4c6.7,9.1,12.8,18.6,18.8,28.2     c11.6,18.8,22.7,38.2,32.2,58.3c1.4,3.1,5.4,4.1,8.5,3.4c8.7-2,17.4-4.1,26-6.2c3.6-0.9,6.7-5.6,5.2-9.2     C219.2,115.8,205.7,91,191,67.8c-9.2-14.5-19.2-28.8-31.2-41.1c-9.8-10-21.2-18.6-35.4-20.3C102.5,3.6,81,16,68.1,33.2     c-12.7,17-13.2,39.1-8.1,59c5.3,20.4,15.5,39.5,26.8,57.1c14.8,23.3,32.2,45,50.3,65.7c17.4,19.9,35.6,39.1,54.8,57.4     c7.4,7,17,11.3,26.9,6c12.7-6.8,14.4-23.6,4.6-33.6C216.7,237.8,206.1,248.5,212.8,255.4z"/></g></g><g><path d="M329.9,311.4l-69.4,69.4c-2.6,2.6-6,3.9-9.5,3.9c-3.4,0-6.9-1.3-9.5-3.9c-5.2-5.2-5.2-13.7,0-18.9    l69.4-69.4c5.2-5.2,13.7-5.2,18.9,0C335.1,297.7,335.1,306.1,329.9,311.4z" fill="#EF4136"/><g><path d="M324.6,306.1c-22.1,22.1-44.2,44.2-66.3,66.3c-1,1-2,2.1-3.1,3.1c-4.1,3.6-11.1,0.8-10-5.1c0.7-3.8,6.1-7.6,8.6-10.1     c13.6-13.6,27.2-27.2,40.8-40.8c6.2-6.2,12.4-12.4,18.7-18.7c1-1,1.9-2.1,3-3C322,292.9,329.7,300.4,324.6,306.1     c-6.4,7.2,4.1,17.8,10.6,10.6c6.8-7.6,8.3-18.4,2.1-26.9c-5.7-8-16.4-10.8-25.4-6.8c-5.7,2.6-10.2,8.2-14.6,12.6     c-15.8,15.8-31.7,31.7-47.5,47.5c-4.4,4.4-9.1,8.8-13.4,13.4c-5,5.4-7.4,12.4-5.8,19.7c2.2,9.8,11.7,16.9,21.8,16.1     c8.8-0.7,14-6.8,19.8-12.6c7.3-7.3,14.6-14.6,21.9-21.9c13.7-13.7,27.3-27.3,41-41C342,309.8,331.4,299.2,324.6,306.1z"/></g></g><g><path d="M366.5,348l-69.4,69.4c-2.6,2.6-6,3.9-9.5,3.9c-3.4,0-6.9-1.3-9.5-3.9c-5.2-5.2-5.2-13.7,0-18.9l69.4-69.4    c5.2-5.2,13.7-5.2,18.9,0C371.7,334.3,371.7,342.7,366.5,348z" fill="#EF4136"/><g><path d="M361.2,342.7c-22.1,22.1-44.2,44.2-66.3,66.3c-1,1-2,2.1-3.1,3.1c-4.2,3.6-11.1,0.9-10-5.1c0.7-3.8,6.1-7.6,8.6-10.1     c13.6-13.6,27.2-27.2,40.8-40.8c6.2-6.2,12.4-12.4,18.7-18.7c1-1,1.9-2.1,3-3C358.6,329.5,366.3,336.9,361.2,342.7     c-6.4,7.2,4.1,17.8,10.6,10.6c6.8-7.6,8.3-18.4,2.2-26.9c-5.8-8-16.4-10.8-25.4-6.8c-5.7,2.6-10.2,8.2-14.6,12.6     c-15.8,15.8-31.7,31.7-47.5,47.5c-4.4,4.4-9.1,8.8-13.4,13.4c-5,5.4-7.4,12.4-5.8,19.7c2.2,9.8,11.7,16.9,21.8,16.1     c8.9-0.7,14-6.8,19.8-12.6c7.3-7.3,14.6-14.6,21.9-21.9c13.7-13.7,27.3-27.3,41-41C378.6,346.4,368,335.8,361.2,342.7z"/></g></g></g></svg>