<?xml version="1.0" ?><svg viewBox="0 0 64 64" xmlns="http://www.w3.org/2000/svg"><g id="outline"><path d="M57.585,43.189a1,1,0,0,0-.9-.138,5.435,5.435,0,0,1-4.76-.637l-.369-.246a1,1,0,0,0-1.45.385,4.056,4.056,0,0,1-1.3,1.484.981.981,0,0,0-.515.256.843.843,0,0,0-.064.1,3.993,3.993,0,0,1-.654.264l-2.674.764A4.016,4.016,0,0,0,42,49.263V51a1,1,0,0,0,1,1H57a1,1,0,0,0,1-1V44A1,1,0,0,0,57.585,43.189ZM56,50H44v-.737a2.009,2.009,0,0,1,1.45-1.923l2.674-.764a6.21,6.21,0,0,0,.754-.284l.415.415a1,1,0,0,0,1.414-1.414l-.117-.117a6.036,6.036,0,0,0,.723-.792A7.417,7.417,0,0,0,56,45.261Z"/><path d="M61,14H36V12a4,4,0,0,0-8,0v2H3a1,1,0,0,0-1,1V55a1,1,0,0,0,1,1H61a1,1,0,0,0,1-1V15A1,1,0,0,0,61,14ZM38.3,48H33V45a1,1,0,0,0-1-1H20v2H31v2H4V24H8a6,6,0,0,0,12,0H31v3a1,1,0,0,0,1,1H44V26H33V24H60V36H53A15.026,15.026,0,0,0,38.3,48ZM10.142,23a3.981,3.981,0,0,1,7.716,0Zm7.716,2a3.981,3.981,0,0,1-7.716,0ZM30,12a2,2,0,0,1,4,0v6H30ZM4,16H28v3a1,1,0,0,0,1,1h6a1,1,0,0,0,1-1V16H60v6H19.65a5.99,5.99,0,0,0-11.3,0H4ZM4,50H38.051c-.022.332-.051.662-.051,1v3H4Zm36,4V51A13.015,13.015,0,0,1,53,38h7V54Z"/><path d="M17.316,32.051A1,1,0,0,0,16.2,32.4L14,35.333,11.8,32.4A1,1,0,0,0,10,33v7a1,1,0,0,0,2,0V36l1.2,1.6a1.036,1.036,0,0,0,1.6,0L16,36v4a1,1,0,0,0,2,0V33A1,1,0,0,0,17.316,32.051Z"/><path d="M23,36H21a1,1,0,0,0,0,2h2a1,1,0,0,0,0-2Z"/><path d="M37,32a4,4,0,0,0-4,4v1a4,4,0,0,0,8,0V36A4,4,0,0,0,37,32Zm2,5a2,2,0,0,1-4,0V36a2,2,0,0,1,4,0Z"/><path d="M31,39H30V33a1,1,0,0,0-1-1H28a1,1,0,0,0-.895.553l-1,2a1,1,0,1,0,1.79.894L28,35.236V39H27a1,1,0,0,0,0,2h4a1,1,0,0,0,0-2Z"/><rect height="2" width="2" x="12" y="44"/><rect height="2" width="2" x="8" y="44"/><rect height="2" width="2" x="16" y="44"/><rect height="2" width="2" x="50" y="26"/><rect height="2" width="2" x="54" y="26"/><rect height="2" width="2" x="46" y="26"/></g></svg>